<?xml version="1.0" encoding="UTF-8" standalone="yes"?>
<!DOCTYPE svg PUBLIC "-//W3C//DTD SVG 1.1//EN" "http://www.w3.org/Graphics/SVG/1.1/DTD/svg11.dtd">

<svg width="30" height="42" viewBox="0 0 30 42" xmlns="http://www.w3.org/2000/svg" xmlns:xlink="http://www.w3.org/1999/xlink" version="1.1" baseProfile="full">
    <g transform="scale(1.000000,-1.000000) translate(0,-42)">
        <path d="M 5.051516 1.000000 L 26.948484 1.000000 C 29.186075 1.000000 31.000000 2.813925 31.000000 5.051516 L 31.000000 38.948484 C 31.000000 41.186075 29.186075 43.000000 26.948484 43.000000 L 5.051516 43.000000 C 2.813925 43.000000 1.000000 41.186075 1.000000 38.948484 L 1.000000 5.051516 C 1.000000 2.813925 2.813925 1.000000 5.051516 1.000000 Z" transform="scale(1.000000,1.000000) translate(-1.000000,-1.000000)" opacity="1.000000"></path>
        <path d="M 7.817574 1.000000 L 7.817574 13.688666 L 7.002075 13.688666 L 7.002075 10.775452 C 7.002075 10.516500 6.936835 10.225178 6.317055 10.225178 L 5.648346 10.225178 C 3.136608 10.225178 1.000000 8.105006 1.000000 5.612589 C 1.000000 3.103988 3.136608 1.000000 5.648346 1.000000 Z M 5.648346 1.809226 C 3.544358 1.809226 1.831809 3.540970 1.831809 5.644958 C 1.831809 7.732762 3.544358 9.432137 5.648346 9.432137 L 6.317055 9.432137 C 6.578015 9.432137 6.806355 9.464506 7.002075 9.545428 L 7.002075 1.809226 Z" transform="scale(1.000000,1.000000) translate(4.793158,6.151660)" fill="#ffffff" opacity="1.000000"></path>
        <path d="M 1.815499 4.560595 L 1.815499 8.881863 C 1.815499 9.059893 1.929669 9.399768 2.500519 9.399768 L 4.376167 9.399768 L 4.376167 10.208994 L 2.500519 10.208994 C 2.239559 10.208994 2.011219 10.176625 1.815499 10.095702 L 1.815499 13.688666 L 1.000000 13.688666 L 1.000000 4.576780 C 1.000000 2.634637 2.500519 1.000000 4.376167 1.000000 L 4.376167 1.809226 C 2.973508 1.809226 1.831809 3.055434 1.815499 4.560595 Z" transform="scale(1.000000,1.000000) translate(6.513862,21.159674)" fill="#ffffff" opacity="1.000000"></path>
        <path d="M 8.466063 5.243288 C 8.466063 7.169108 6.962223 8.725130 5.113755 8.725130 C 3.265287 8.725130 1.761446 7.169108 1.761446 5.243288 C 1.761446 3.317469 3.265287 1.761446 5.113755 1.761446 C 6.962223 1.761446 8.466063 3.317469 8.466063 5.243288 Z M 9.227510 5.243288 C 9.227510 2.902636 7.388680 1.000000 5.113755 1.000000 C 2.838830 1.000000 1.000000 2.902636 1.000000 5.243288 C 1.000000 7.583941 2.838830 9.486577 5.113755 9.486577 C 7.388680 9.486577 9.227510 7.583941 9.227510 5.243288 Z" transform="scale(1.000000,1.000000) translate(14.979332,21.159674)" fill="#ffffff" opacity="1.000000"></path>
        <path d="M 9.227510 5.243288 C 9.227510 7.586792 7.385719 9.486577 5.113755 9.486577 C 2.841791 9.486577 1.000000 7.586792 1.000000 5.243288 C 1.000000 2.899785 2.841791 1.000000 5.113755 1.000000 C 7.385719 1.000000 9.227510 2.899785 9.227510 5.243288 Z" transform="scale(1.000000,1.000000) translate(14.979280,6.545336)" fill="#ffffff" opacity="1.000000"></path>
        <path d="M 1.643270 3.619707 L 3.786201 1.925411 L 3.061085 1.844400 L 6.495814 6.098197 L 7.302776 5.446615 L 3.868046 1.192819 C 3.689421 0.971597 3.365973 0.935461 3.142930 1.111808 L 1.000000 2.806104 L 1.643270 3.619707 Z" transform="scale(1.000000,1.000000) translate(16.402304,8.924204)" opacity="1.000000"></path>
    </g>
</svg>